<?xml version="1.0" encoding="UTF-8" standalone="no"?>
<svg xmlns="http://www.w3.org/2000/svg" version="1.0" width="994.5219" height="1000.0" id="c:\regular_star_polygon_15-7.svg">
<!-- X Coordinate transform: fx(x)=(x+1.077055)*457.0492-->
<!-- Y Coordinate transform: fy(y)=(1.0939741-y)*457.0492 -->
<g style="stroke:#000000;stroke-width:4.9726095;stroke-opacity:1.00;fill-opacity:00">
<!-- Group: <Default>-->
</g>
<g style="stroke:#000000;stroke-width:4.9726095;stroke-opacity:1.00;fill-opacity:00">
<!-- Group: poly-->
<path d="M 949.316,500 45.206,404.974" />
<path d="M 45.206,404.974 909.802,685.899" />
<path d="M 909.802,685.899 122.507,231.353" />
<path d="M 122.507,231.353 798.093,839.654" />
<path d="M 263.743,104.184 798.093,839.654" />
<path d="M 633.503,934.68 263.743,104.184" />
<path d="M 444.492,45.455 633.503,934.68" />
<path d="M 444.492,45.455 444.492,954.545" />
<path d="M 444.492,954.545 633.503,65.32" />
<path d="M 633.503,65.32 263.743,895.816" />
<path d="M 263.743,895.816 798.093,160.346" />
<path d="M 122.507,768.647 798.093,160.346" />
<path d="M 909.802,314.101 122.507,768.647" />
<path d="M 45.206,595.026 909.802,314.101" />
<path d="M 949.316,500 45.206,595.026" />
</g>
<g style="stroke:#000000;stroke-width:0.6630146;fill:#ff007f">
<circle cx="949.316" cy="500" r="7.9561753"/>
<circle cx="45.206" cy="404.974" r="7.9561753"/>
<circle cx="45.206" cy="404.974" r="7.9561753"/>
<circle cx="909.802" cy="685.899" r="7.9561753"/>
<circle cx="909.802" cy="685.899" r="7.9561753"/>
<circle cx="122.507" cy="231.353" r="7.9561753"/>
<circle cx="122.507" cy="231.353" r="7.9561753"/>
<circle cx="798.093" cy="839.654" r="7.9561753"/>
<circle cx="798.093" cy="839.654" r="7.9561753"/>
<circle cx="263.743" cy="104.184" r="7.9561753"/>
<circle cx="263.743" cy="104.184" r="7.9561753"/>
<circle cx="633.503" cy="934.68" r="7.9561753"/>
<circle cx="633.503" cy="934.68" r="7.9561753"/>
<circle cx="444.492" cy="45.455" r="7.9561753"/>
<circle cx="444.492" cy="45.455" r="7.9561753"/>
<circle cx="444.492" cy="954.545" r="7.9561753"/>
<circle cx="444.492" cy="954.545" r="7.9561753"/>
<circle cx="633.503" cy="65.32" r="7.9561753"/>
<circle cx="633.503" cy="65.32" r="7.9561753"/>
<circle cx="263.743" cy="895.816" r="7.9561753"/>
<circle cx="263.743" cy="895.816" r="7.9561753"/>
<circle cx="798.093" cy="160.346" r="7.9561753"/>
<circle cx="798.093" cy="160.346" r="7.9561753"/>
<circle cx="122.507" cy="768.647" r="7.9561753"/>
<circle cx="122.507" cy="768.647" r="7.9561753"/>
<circle cx="909.802" cy="314.101" r="7.9561753"/>
<circle cx="909.802" cy="314.101" r="7.9561753"/>
<circle cx="45.206" cy="595.026" r="7.9561753"/>
<circle cx="45.206" cy="595.026" r="7.9561753"/>
<circle cx="949.316" cy="500" r="7.9561753"/>
</g>
</svg>
